<mxfile host="65bd71144e">
    <diagram name="Page-1" id="UYv9wnhMZrC4FtsCfswt">
        <mxGraphModel dx="792" dy="419" grid="1" gridSize="10" guides="1" tooltips="1" connect="1" arrows="1" fold="1" page="1" pageScale="1" pageWidth="850" pageHeight="1100" math="0" shadow="0">
            <root>
                <mxCell id="0"/>
                <mxCell id="1" parent="0"/>
                <mxCell id="7-hjQiaTYw8_z-kzEk-z-1" value="Twister Scheduler Manager" style="shape=umlActor;verticalLabelPosition=bottom;verticalAlign=top;html=1;outlineConnect=0;" parent="1" vertex="1">
                    <mxGeometry x="120" y="422" width="53" height="105" as="geometry"/>
                </mxCell>
                <mxCell id="7-hjQiaTYw8_z-kzEk-z-2" value="" style="swimlane;startSize=0;" parent="1" vertex="1">
                    <mxGeometry x="297" y="290" width="236" height="390" as="geometry"/>
                </mxCell>
                <mxCell id="7-hjQiaTYw8_z-kzEk-z-3" value="Make Reservations" style="ellipse;whiteSpace=wrap;html=1;" parent="7-hjQiaTYw8_z-kzEk-z-2" vertex="1">
                    <mxGeometry x="45" y="120" width="162" height="41" as="geometry"/>
                </mxCell>
                <mxCell id="7-hjQiaTYw8_z-kzEk-z-4" value="Cancel Reservations" style="ellipse;whiteSpace=wrap;html=1;" parent="7-hjQiaTYw8_z-kzEk-z-2" vertex="1">
                    <mxGeometry x="45" y="173" width="162" height="60" as="geometry"/>
                </mxCell>
                <mxCell id="7-hjQiaTYw8_z-kzEk-z-5" value="View Reservations" style="ellipse;whiteSpace=wrap;html=1;" parent="7-hjQiaTYw8_z-kzEk-z-2" vertex="1">
                    <mxGeometry x="45" y="240" width="162" height="55" as="geometry"/>
                </mxCell>
                <mxCell id="7-hjQiaTYw8_z-kzEk-z-6" value="View Holidays" style="ellipse;whiteSpace=wrap;html=1;" parent="7-hjQiaTYw8_z-kzEk-z-2" vertex="1">
                    <mxGeometry x="47" y="310" width="162" height="58" as="geometry"/>
                </mxCell>
                <mxCell id="7-hjQiaTYw8_z-kzEk-z-8" value="Add Twister" style="ellipse;whiteSpace=wrap;html=1;" parent="7-hjQiaTYw8_z-kzEk-z-2" vertex="1">
                    <mxGeometry x="43" y="12" width="162" height="41" as="geometry"/>
                </mxCell>
                <mxCell id="7-hjQiaTYw8_z-kzEk-z-9" value="Add Holiday" style="ellipse;whiteSpace=wrap;html=1;" parent="7-hjQiaTYw8_z-kzEk-z-2" vertex="1">
                    <mxGeometry x="43" y="65" width="162" height="41" as="geometry"/>
                </mxCell>
                <mxCell id="7-hjQiaTYw8_z-kzEk-z-10" value="&lt;b&gt;User&lt;/b&gt;" style="text;html=1;align=center;verticalAlign=middle;resizable=0;points=[];autosize=1;strokeColor=none;fillColor=none;fontSize=16;" parent="1" vertex="1">
                    <mxGeometry x="120" y="384" width="54" height="31" as="geometry"/>
                </mxCell>
                <mxCell id="7-hjQiaTYw8_z-kzEk-z-11" value="" style="endArrow=none;html=1;rounded=0;fontSize=12;startSize=8;endSize=8;curved=1;entryX=0;entryY=0.5;entryDx=0;entryDy=0;" parent="1" target="7-hjQiaTYw8_z-kzEk-z-8" edge="1">
                    <mxGeometry width="50" height="50" relative="1" as="geometry">
                        <mxPoint x="173" y="458" as="sourcePoint"/>
                        <mxPoint x="223" y="408" as="targetPoint"/>
                    </mxGeometry>
                </mxCell>
                <mxCell id="7-hjQiaTYw8_z-kzEk-z-12" value="" style="endArrow=none;html=1;rounded=0;fontSize=12;startSize=8;endSize=8;curved=1;exitX=1;exitY=0.3333333333333333;exitDx=0;exitDy=0;exitPerimeter=0;entryX=0;entryY=0.5;entryDx=0;entryDy=0;" parent="1" source="7-hjQiaTYw8_z-kzEk-z-1" target="7-hjQiaTYw8_z-kzEk-z-9" edge="1">
                    <mxGeometry width="50" height="50" relative="1" as="geometry">
                        <mxPoint x="186" y="459" as="sourcePoint"/>
                        <mxPoint x="236" y="409" as="targetPoint"/>
                    </mxGeometry>
                </mxCell>
                <mxCell id="7-hjQiaTYw8_z-kzEk-z-13" value="" style="endArrow=none;html=1;rounded=0;fontSize=12;startSize=8;endSize=8;curved=1;entryX=0;entryY=0.5;entryDx=0;entryDy=0;" parent="1" target="7-hjQiaTYw8_z-kzEk-z-3" edge="1">
                    <mxGeometry width="50" height="50" relative="1" as="geometry">
                        <mxPoint x="173" y="457" as="sourcePoint"/>
                        <mxPoint x="262" y="437" as="targetPoint"/>
                    </mxGeometry>
                </mxCell>
                <mxCell id="7-hjQiaTYw8_z-kzEk-z-14" value="" style="endArrow=none;html=1;rounded=0;fontSize=12;startSize=8;endSize=8;curved=1;entryX=0;entryY=0.5;entryDx=0;entryDy=0;" parent="1" target="7-hjQiaTYw8_z-kzEk-z-4" edge="1">
                    <mxGeometry width="50" height="50" relative="1" as="geometry">
                        <mxPoint x="175" y="459" as="sourcePoint"/>
                        <mxPoint x="282" y="462" as="targetPoint"/>
                    </mxGeometry>
                </mxCell>
                <mxCell id="7-hjQiaTYw8_z-kzEk-z-15" value="" style="endArrow=none;html=1;rounded=0;fontSize=12;startSize=8;endSize=8;curved=1;exitX=1;exitY=0.3333333333333333;exitDx=0;exitDy=0;exitPerimeter=0;entryX=0;entryY=0.5;entryDx=0;entryDy=0;" parent="1" source="7-hjQiaTYw8_z-kzEk-z-1" target="7-hjQiaTYw8_z-kzEk-z-5" edge="1">
                    <mxGeometry width="50" height="50" relative="1" as="geometry">
                        <mxPoint x="225" y="552" as="sourcePoint"/>
                        <mxPoint x="275" y="502" as="targetPoint"/>
                    </mxGeometry>
                </mxCell>
                <mxCell id="7-hjQiaTYw8_z-kzEk-z-16" value="" style="endArrow=none;html=1;rounded=0;fontSize=12;startSize=8;endSize=8;curved=1;entryX=0;entryY=0.5;entryDx=0;entryDy=0;" parent="1" target="7-hjQiaTYw8_z-kzEk-z-6" edge="1">
                    <mxGeometry width="50" height="50" relative="1" as="geometry">
                        <mxPoint x="175.99999999999977" y="457" as="sourcePoint"/>
                        <mxPoint x="275" y="555" as="targetPoint"/>
                    </mxGeometry>
                </mxCell>
                <mxCell id="7-hjQiaTYw8_z-kzEk-z-18" value="&lt;b&gt;Twister Scheduler Management System&lt;/b&gt;" style="text;html=1;align=center;verticalAlign=middle;whiteSpace=wrap;rounded=0;" parent="1" vertex="1">
                    <mxGeometry x="310" y="250" width="210" height="30" as="geometry"/>
                </mxCell>
            </root>
        </mxGraphModel>
    </diagram>
</mxfile>